<svg width="32" height="32" viewBox="0 0 32 32" fill="none" xmlns="http://www.w3.org/2000/svg">
<path fill-rule="evenodd" clip-rule="evenodd" d="M5.25 11.4545C5.25 8.04033 8.04033 5.25 11.4545 5.25H20.5455C23.9597 5.25 26.75 8.04033 26.75 11.4545V20.5455C26.75 23.9597 23.9597 26.75 20.5455 26.75H11.4545C8.04033 26.75 5.25 23.9597 5.25 20.5455V11.4545ZM11.4545 6.75C8.86876 6.75 6.75 8.86876 6.75 11.4545V20.5455C6.75 23.1312 8.86876 25.25 11.4545 25.25H20.5455C23.1312 25.25 25.25 23.1312 25.25 20.5455V11.4545C25.25 8.86876 23.1312 6.75 20.5455 6.75H11.4545ZM16 19.5C17.933 19.5 19.5 17.933 19.5 16C19.5 14.067 17.933 12.5 16 12.5C14.067 12.5 12.5 14.067 12.5 16C12.5 17.933 14.067 19.5 16 19.5ZM16 21C18.7614 21 21 18.7614 21 16C21 13.2386 18.7614 11 16 11C13.2386 11 11 13.2386 11 16C11 18.7614 13.2386 21 16 21ZM21 11C21.5523 11 22 10.5523 22 10C22 9.44772 21.5523 9 21 9C20.4477 9 20 9.44772 20 10C20 10.5523 20.4477 11 21 11Z" fill="white"/>
</svg>
