<svg width="32" height="32" viewBox="0 0 32 32" fill="none" xmlns="http://www.w3.org/2000/svg">
<path d="M30.3153 0H1.68471C1.24761 0.0295159 0.836039 0.216488 0.526263 0.526263C0.216488 0.836039 0.0295159 1.24761 0 1.68471L0 30.3153C0.00247125 30.7613 0.18076 31.1884 0.49617 31.5038C0.811579 31.8192 1.23866 31.9975 1.68471 32H17.0108V19.5369H12.9675V14.8216H17.1784V11.2847C17.0876 10.4365 17.185 9.57867 17.4637 8.7724C17.7424 7.96613 18.1954 7.23123 18.7906 6.62008C19.3857 6.00892 20.1084 5.53653 20.907 5.23658C21.7056 4.93662 22.5605 4.81648 23.4108 4.88471C25.0955 4.88471 26.6108 5.05224 27.1153 5.05224V9.43247H24.5892C22.5675 9.43247 22.2306 10.4433 22.2306 11.7911V14.8216H26.9459L26.272 19.7064H22.0631V32H30.3153C30.7613 31.9975 31.1884 31.8192 31.5038 31.5038C31.8192 31.1884 31.9975 30.7613 32 30.3153V1.68471C31.9705 1.24761 31.7835 0.836039 31.4737 0.526263C31.164 0.216488 30.7524 0.0295159 30.3153 0V0Z" fill="white"/>
</svg>
