<svg width="32" height="32" viewBox="0 0 32 32" fill="none" xmlns="http://www.w3.org/2000/svg">
<path d="M30.6665 8.01674C30.2837 8.58886 29.8507 9.12237 29.3677 9.6173C28.8846 10.1122 28.3605 10.564 27.7954 10.9727C27.8045 11.0998 27.8114 11.2247 27.8159 11.3473C27.8205 11.4699 27.8228 11.5947 27.8228 11.7219C27.8228 12.8661 27.6997 13.9967 27.4536 15.1137C27.2075 16.2307 26.8521 17.3113 26.3872 18.3557C25.7127 19.8722 24.8696 21.2276 23.8579 22.4218C22.8462 23.616 21.7 24.6262 20.4194 25.4526C19.1388 26.279 17.742 26.9102 16.229 27.3461C14.716 27.782 13.13 27.9999 11.4712 27.9999C9.90348 27.9999 8.37451 27.7842 6.88427 27.3529C5.39404 26.9215 3.98811 26.279 2.6665 25.4254C3.11312 25.4799 3.56885 25.5071 4.03369 25.5071C5.33708 25.5071 6.59716 25.2983 7.81396 24.8805C9.03075 24.4628 10.1496 23.8543 11.1704 23.0552C10.5597 23.0461 9.97183 22.944 9.40673 22.7487C8.84162 22.5535 8.32437 22.281 7.85497 21.9314C7.38557 21.5818 6.97541 21.1663 6.6245 20.685C6.27359 20.2037 6.00243 19.6725 5.81102 19.0913C5.99332 19.1185 6.17333 19.1412 6.35106 19.1594C6.5288 19.1775 6.70881 19.1866 6.8911 19.1866C7.40152 19.1866 7.90282 19.1185 8.39501 18.9823C7.72053 18.8461 7.10302 18.6054 6.54247 18.2603C5.98193 17.9152 5.49657 17.4952 5.08642 17.0003C4.67626 16.5054 4.35725 15.9469 4.12939 15.3248C3.90152 14.7028 3.78759 14.0512 3.78759 13.3701V13.302C4.58967 13.7561 5.46011 13.9967 6.39892 14.024C5.99787 13.7515 5.64013 13.4405 5.32568 13.0909C5.01122 12.7412 4.74462 12.3621 4.52587 11.9534C4.30712 11.5448 4.1385 11.1134 4.02001 10.6594C3.90152 10.2053 3.84228 9.73763 3.84228 9.25633C3.84228 8.74778 3.90608 8.25059 4.03368 7.76475C4.16129 7.2789 4.35725 6.81803 4.62157 6.38213C5.35074 7.28117 6.16194 8.08713 7.05517 8.8C7.9484 9.51287 8.89859 10.1236 9.90575 10.6321C10.9129 11.1407 11.9679 11.5425 13.0708 11.8377C14.1737 12.1328 15.3039 12.3076 16.4614 12.3621C16.4067 12.1532 16.368 11.9376 16.3452 11.7151C16.3224 11.4926 16.311 11.2724 16.311 11.0544C16.311 10.2643 16.4614 9.52196 16.7622 8.82724C17.063 8.13253 17.4731 7.52636 17.9927 7.00873C18.5122 6.4911 19.1206 6.08245 19.8179 5.78277C20.5151 5.48309 21.2602 5.33325 22.0532 5.33325C22.8553 5.33325 23.6186 5.4899 24.3432 5.8032C25.0679 6.1165 25.7036 6.56375 26.2505 7.14495C26.8976 7.01781 27.5242 6.83846 28.1304 6.60689C28.7365 6.37532 29.3221 6.09153 29.8872 5.75553C29.6776 6.41846 29.3563 7.02236 28.9233 7.56722C28.4904 8.11209 27.9731 8.56162 27.3716 8.91578C28.52 8.77957 29.6183 8.47989 30.6665 8.01675L30.6665 8.01674Z" fill="white"/>
</svg>
