<svg width="54" height="54" viewBox="0 0 54 54" fill="none" xmlns="http://www.w3.org/2000/svg">
<path opacity="0.4" d="M26.9997 0.332803C41.7063 0.332803 53.6663 12.2955 53.6663 26.9995C53.6663 41.7035 41.7063 53.6661 26.9997 53.6661C12.2957 53.6661 0.333008 41.7035 0.333008 26.9995C0.333008 12.2955 12.2957 0.332803 26.9997 0.332803" fill="#E68C8F"/>
<path d="M23.1534 15.7443C23.6627 15.7443 24.1747 15.939 24.564 16.3283L33.8627 25.5816C34.2387 25.9576 34.4494 26.467 34.4494 27.0003C34.4494 27.531 34.2387 28.0403 33.8627 28.4163L24.564 37.675C23.7827 38.4536 22.5187 38.4536 21.7374 37.6696C20.9587 36.8856 20.9614 35.619 21.7427 34.8403L29.6174 27.0003L21.7427 19.1603C20.9614 18.3816 20.9587 17.1176 21.7374 16.3336C22.1267 15.939 22.6414 15.7443 23.1534 15.7443" fill="#E68C8F"/>
</svg>
