<svg width="21" height="20" viewBox="0 0 21 20" fill="none" xmlns="http://www.w3.org/2000/svg">
<path d="M3.68384 9.77136C3.68384 9.45495 3.92813 9.19345 4.24508 9.15207L4.33319 9.14636H17.3202C17.6788 9.14636 17.9696 9.42618 17.9696 9.77136C17.9696 10.0878 17.7253 10.3493 17.4083 10.3907L17.3202 10.3964H4.33319C3.97456 10.3964 3.68384 10.1165 3.68384 9.77136Z" fill="white"/>
<path d="M11.624 5.19393C11.3699 4.95038 11.369 4.55465 11.6221 4.31005C11.8521 4.08768 12.2128 4.06676 12.4674 4.24778L12.5404 4.30814L17.7785 9.32814C18.0102 9.55022 18.0313 9.89864 17.8417 10.1437L17.7785 10.2139L12.5404 15.2347C12.2863 15.4783 11.8752 15.4775 11.6221 15.2329C11.392 15.0105 11.3718 14.6633 11.561 14.419L11.624 14.349L16.3998 9.77079L11.624 5.19393Z" fill="white"/>
</svg>
