<svg width="21" height="20" viewBox="0 0 21 20" fill="none" xmlns="http://www.w3.org/2000/svg">
<path d="M3.68408 9.77136C3.68408 9.45495 3.92837 9.19345 4.24532 9.15207L4.33343 9.14636H17.3204C17.6791 9.14636 17.9698 9.42618 17.9698 9.77136C17.9698 10.0878 17.7255 10.3493 17.4086 10.3907L17.3204 10.3964H4.33343C3.97481 10.3964 3.68408 10.1165 3.68408 9.77136Z" fill="#D64045"/>
<path d="M11.6243 5.19393C11.3702 4.95038 11.3693 4.55465 11.6223 4.31005C11.8523 4.08768 12.213 4.06676 12.4677 4.24778L12.5406 4.30814L17.7787 9.32814C18.0104 9.55022 18.0315 9.89864 17.8419 10.1437L17.7788 10.2139L12.5407 15.2347C12.2866 15.4783 11.8754 15.4775 11.6223 15.2329C11.3923 15.0105 11.3721 14.6633 11.5612 14.419L11.6242 14.349L16.4 9.77079L11.6243 5.19393Z" fill="#D64045"/>
</svg>
