<svg width="54" height="54" viewBox="0 0 54 54" fill="none" xmlns="http://www.w3.org/2000/svg">
<path opacity="0.4" d="M27.0003 53.6672C12.2937 53.6672 0.333657 41.7045 0.333657 27.0005C0.333657 12.2965 12.2937 0.333862 27.0003 0.333862C41.7043 0.333862 53.667 12.2965 53.667 27.0005C53.667 41.7045 41.7043 53.6672 27.0003 53.6672" fill="#E68C8F"/>
<path d="M30.8466 38.2557C30.3373 38.2557 29.8253 38.061 29.436 37.6717L20.1373 28.4184C19.7613 28.0424 19.5506 27.533 19.5506 26.9997C19.5506 26.469 19.7613 25.9597 20.1373 25.5837L29.436 16.325C30.2173 15.5464 31.4813 15.5464 32.2626 16.3304C33.0413 17.1144 33.0386 18.381 32.2573 19.1597L24.3826 26.9997L32.2573 34.8397C33.0386 35.6184 33.0413 36.8824 32.2626 37.6664C31.8733 38.061 31.3586 38.2557 30.8466 38.2557" fill="#E68C8F"/>
</svg>
