<svg width="24" height="25" viewBox="0 0 24 25" fill="none" xmlns="http://www.w3.org/2000/svg">
<path d="M12 21.5C16.9706 21.5 21 17.4706 21 12.5C21 7.52944 16.9706 3.5 12 3.5C7.02944 3.5 3 7.52944 3 12.5C3 17.4706 7.02944 21.5 12 21.5Z" stroke="#118488" stroke-width="2" stroke-miterlimit="10" stroke-linecap="round" stroke-linejoin="round"/>
<path d="M15.7071 11.2071C16.0976 10.8166 16.0976 10.1834 15.7071 9.79289C15.3166 9.40237 14.6834 9.40237 14.2929 9.79289L15.7071 11.2071ZM11 14.5L10.2929 15.2071C10.6834 15.5976 11.3166 15.5976 11.7071 15.2071L11 14.5ZM9.70711 11.7929C9.31658 11.4024 8.68342 11.4024 8.29289 11.7929C7.90237 12.1834 7.90237 12.8166 8.29289 13.2071L9.70711 11.7929ZM14.2929 9.79289L10.2929 13.7929L11.7071 15.2071L15.7071 11.2071L14.2929 9.79289ZM11.7071 13.7929L9.70711 11.7929L8.29289 13.2071L10.2929 15.2071L11.7071 13.7929Z" fill="#118488"/>
</svg>
