<svg width="65" height="64" viewBox="0 0 65 64" fill="none" xmlns="http://www.w3.org/2000/svg">
<circle cx="32.3333" cy="32" r="32" fill="#D64045"/>
<path opacity="0.4" d="M32.4487 45.3333C32.2836 45.3333 32.1184 45.2954 31.9695 45.2182L27.168 42.7328C25.8055 42.0267 24.7397 41.2344 23.9075 40.3114C22.086 38.2927 21.0725 35.7013 21.0564 33.0132L21.0001 24.1656C20.9933 23.1445 21.6524 22.228 22.6377 21.8828L31.454 18.809C31.9775 18.622 32.5614 18.6194 33.0943 18.7999L41.9442 21.7691C42.9348 22.0999 43.6046 23.0099 43.61 24.0297L43.6664 32.8837C43.6838 35.5679 42.7053 38.1698 40.912 40.2107C40.0891 41.1468 39.0327 41.9509 37.6837 42.67L32.9252 45.2117C32.7775 45.2915 32.6138 45.332 32.4487 45.3333Z" fill="white"/>
<path d="M31.4256 35.0946C31.1678 35.0959 30.9101 35.003 30.7115 34.8121L28.1557 32.3541C27.7611 31.9724 27.757 31.3526 28.1476 30.9682C28.5383 30.5825 29.1759 30.5786 29.5718 30.9591L31.4108 32.7268L35.9009 28.2997C36.2928 27.914 36.9304 27.9101 37.325 28.2906C37.721 28.6723 37.7251 29.2934 37.3344 29.6765L32.1357 34.803C31.9397 34.9965 31.6833 35.0932 31.4256 35.0946Z" fill="white"/>
</svg>
