<svg width="65" height="64" viewBox="0 0 65 64" fill="none" xmlns="http://www.w3.org/2000/svg">
<circle cx="32.6667" cy="32" r="32" fill="#D64045"/>
<path fill-rule="evenodd" clip-rule="evenodd" d="M28.0423 19.9157C30.9555 18.223 34.5362 18.2526 37.422 19.9932C40.2794 21.7692 42.0161 24.9389 41.9999 28.3486C41.9334 31.7359 40.0712 34.92 37.7435 37.3814C36.3999 38.8085 34.897 40.0704 33.2653 41.1413C33.0972 41.2385 32.9132 41.3036 32.7221 41.3333C32.5383 41.3255 32.3593 41.2711 32.2012 41.1752C29.7101 39.566 27.5246 37.512 25.7499 35.1119C24.2649 33.1084 23.4213 30.688 23.3335 28.1792C23.3316 24.763 25.1292 21.6083 28.0423 19.9157ZM29.7257 29.593C30.2157 30.8011 31.3724 31.5891 32.6556 31.5891C33.4963 31.5951 34.3044 31.2584 34.8999 30.6539C35.4954 30.0495 35.8288 29.2275 35.8258 28.3711C35.8303 27.064 35.0608 25.883 33.8765 25.3797C32.6923 24.8763 31.3269 25.1498 30.4179 26.0724C29.5089 26.9951 29.2357 28.3849 29.7257 29.593Z" fill="white"/>
<ellipse opacity="0.4" cx="32.6669" cy="44" rx="6.66667" ry="1.33333" fill="white"/>
</svg>
