<svg width="64" height="64" viewBox="0 0 64 64" fill="none" xmlns="http://www.w3.org/2000/svg">
<circle cx="32" cy="32" r="32" fill="#D64045"/>
<path opacity="0.4" d="M35.2245 23.3199C34.5898 23.2026 34.0069 23.6077 33.886 24.2273C33.7652 24.8468 34.1715 25.4518 34.789 25.573C36.648 25.9354 38.0834 27.3744 38.4473 29.2398V29.2411C38.5508 29.7781 39.0235 30.1685 39.568 30.1685C39.641 30.1685 39.714 30.1619 39.7884 30.1485C40.4059 30.0246 40.8122 29.421 40.6913 28.8001C40.1483 26.014 38.0037 23.8622 35.2245 23.3199Z" fill="white"/>
<path opacity="0.4" d="M35.1415 18.6772C34.844 18.6346 34.5452 18.7225 34.3076 18.9117C34.0632 19.1036 33.9105 19.3807 33.8773 19.6912C33.807 20.3187 34.2598 20.8863 34.8865 20.957C39.2087 21.4393 42.5682 24.8063 43.0542 29.142C43.1193 29.7229 43.6066 30.1613 44.1882 30.1613C44.232 30.1613 44.2745 30.1586 44.3184 30.1533C44.6224 30.12 44.8933 29.9694 45.0845 29.7296C45.2744 29.4898 45.3607 29.1913 45.3262 28.8862C44.7207 23.4766 40.5339 19.2781 35.1415 18.6772Z" fill="white"/>
<path fill-rule="evenodd" clip-rule="evenodd" d="M30.7091 33.2965C36.0278 38.6138 37.2344 32.4623 40.6209 35.8464C43.8858 39.1103 45.7622 39.7643 41.6257 43.8996C41.1076 44.316 37.8156 49.3257 26.2462 37.7596C14.6754 26.192 19.6822 22.8966 20.0987 22.3786C24.2452 18.2318 24.8879 20.1192 28.1527 23.3831C31.5392 26.7687 25.3903 27.9792 30.7091 33.2965Z" fill="white"/>
</svg>
