<svg width="101" height="46" viewBox="0 0 101 46" fill="none" xmlns="http://www.w3.org/2000/svg">
<path d="M101 0.5L94.958 33.4947H88.255L92.0128 12.9647L83.7362 23.083H78.5567L74.0364 12.9647L70.2786 33.4947H63.5771L69.6194 0.5H76.3224L82.6699 14.7244L94.2972 0.5H101Z" fill="url(#paint0_linear_78_1215)"/>
<path d="M57.2465 24.3067C57.3232 23.1254 57.1401 22.2325 56.6453 21.9262C56.1842 21.652 55.669 21.4915 55.139 21.4569H46.0858C41.0582 21.4569 37.7075 17.2548 38.5702 12.119L38.9758 9.8379C39.8448 4.70214 44.7189 0.5 49.7466 0.5H68.2475L64.997 7.39874H48.6286C47.2586 7.39874 45.887 8.53929 45.6333 9.99269L45.328 11.9642C45.0744 13.416 46.0389 14.5582 47.4105 14.5582H56.9616C60.3123 14.5582 62.6562 17.3118 63.6191 20.4418C64.101 22.1157 64.1806 23.8871 63.8509 25.6004L63.6144 26.6481C63.3357 27.4628 63.3013 27.9516 62.9067 28.8493C60.3577 34.5717 57.3233 35.5151 39.2905 35.5151H20.5015L23.7003 28.6717H46.3583C51.5378 28.5528 54.4 27.6224 55.7841 26.5894C55.7841 26.5894 56.7846 25.7747 57.0492 25.0774C57.1295 24.8247 57.1954 24.5674 57.2465 24.3067Z" fill="url(#paint1_linear_78_1215)"/>
<path d="M39.2092 0.5L34.3428 27.6697H27.643L30.2217 13.7272L21.9452 24.4647H16.7657L12.2469 13.7272L8.48912 35.5151H1.78613L7.82837 0.5H14.5314L20.8773 15.5945L32.5062 0.5H39.2092Z" fill="url(#paint2_linear_78_1215)"/>
<path d="M5.34509 40.9555C5.31471 41.0034 5.26747 41.0369 5.21356 41.0488C5.15965 41.0607 5.10342 41.05 5.057 41.0191L4.96462 40.9653C4.83356 40.8927 4.69686 40.8316 4.55596 40.7828C4.39033 40.7226 4.2208 40.6747 4.04865 40.6395C3.86204 40.6007 3.67215 40.5815 3.48185 40.5824C3.0591 40.5824 2.74595 40.6509 2.5424 40.7877C2.44659 40.8453 2.36714 40.9282 2.31214 41.0281C2.25713 41.128 2.22853 41.2413 2.22925 41.3564C2.22639 41.4358 2.24033 41.5149 2.27009 41.5881C2.29985 41.6613 2.34471 41.7268 2.40148 41.78C2.55785 41.9058 2.73917 41.9937 2.93227 42.0374C3.17027 42.1026 3.46619 42.1727 3.81692 42.246C4.20413 42.3204 4.58445 42.4294 4.95366 42.5719C5.23445 42.6713 5.48725 42.8415 5.68956 43.0672C5.86887 43.2966 5.96083 43.5865 5.94791 43.8819C5.95386 44.1377 5.8892 44.3899 5.76158 44.6086C5.63411 44.8179 5.45803 44.9905 5.24958 45.1104C5.01465 45.2459 4.7612 45.3431 4.49802 45.3988C4.19675 45.4638 3.88973 45.4955 3.58206 45.4933C3.26118 45.493 2.94098 45.4624 2.62538 45.4021C2.3163 45.3452 2.01285 45.259 1.71881 45.1447C1.50612 45.0613 1.29989 44.961 1.10191 44.8448C1.07771 44.8302 1.05665 44.8105 1.04003 44.7871C1.02341 44.7636 1.01158 44.7369 1.00527 44.7085C0.998963 44.6801 0.998309 44.6506 1.00335 44.622C1.00839 44.5933 1.01902 44.566 1.03458 44.5418L1.26944 44.167C1.29958 44.1189 1.34671 44.0851 1.40064 44.0729C1.45456 44.0607 1.51093 44.0711 1.55754 44.1019C1.60608 44.1328 1.66245 44.1654 1.72351 44.1996C1.89265 44.2872 2.06677 44.3639 2.24491 44.4294C2.45498 44.5068 2.67002 44.5689 2.88843 44.6151C3.12279 44.6655 3.36153 44.6906 3.60085 44.6901C3.92012 44.708 4.23879 44.6448 4.52934 44.5059C4.62719 44.4578 4.70964 44.3813 4.76684 44.2856C4.82404 44.19 4.85356 44.0793 4.85188 43.9666C4.85428 43.879 4.83615 43.7922 4.79905 43.7135C4.76194 43.6349 4.70699 43.5669 4.63894 43.5153C4.45438 43.3826 4.2487 43.285 4.03143 43.2269C3.76838 43.1487 3.4521 43.0639 3.08415 42.9906C2.72211 42.9133 2.36699 42.8043 2.02257 42.6648C1.77735 42.5729 1.55897 42.4169 1.38844 42.2118C1.24221 42.004 1.16872 41.7505 1.18019 41.4932C1.17039 41.1532 1.27817 40.8207 1.48395 40.5564C1.70619 40.2868 1.99629 40.087 2.32163 39.9796C2.70456 39.8462 3.10627 39.7807 3.51003 39.7857C3.78811 39.7844 4.06559 39.8123 4.33832 39.8688C4.58899 39.921 4.83473 39.9963 5.07265 40.0936C5.21447 40.1529 5.35253 40.2215 5.48601 40.2989C5.51088 40.3135 5.53262 40.3332 5.5499 40.3569C5.56719 40.3805 5.57966 40.4076 5.58655 40.4364C5.59344 40.4652 5.5946 40.4952 5.58997 40.5245C5.58533 40.5538 5.575 40.5819 5.5596 40.6069L5.34509 40.9555Z" fill="url(#paint3_linear_78_1215)" stroke="url(#paint4_linear_78_1215)" stroke-width="0.1" stroke-miterlimit="10"/>
<path d="M7.53418 42.5947C7.53555 42.2466 7.60646 41.9025 7.74242 41.5845C7.88723 41.2443 8.09408 40.9367 8.3515 40.6785C8.63372 40.3969 8.96617 40.1755 9.3301 40.0268C9.74782 39.8587 10.1928 39.7763 10.6406 39.784C11.1633 39.7694 11.6815 39.888 12.15 40.1295C12.4671 40.2951 12.7451 40.5316 12.9642 40.8219C12.9809 40.8453 12.9927 40.8721 12.9987 40.9006C13.0047 40.929 13.0049 40.9585 12.9991 40.987C12.9933 41.0155 12.9818 41.0424 12.9652 41.0659C12.9487 41.0894 12.9275 41.109 12.9031 41.1234L12.4553 41.3857C12.4127 41.4107 12.3626 41.4181 12.315 41.4063C12.2674 41.3945 12.2258 41.3645 12.1986 41.3221C12.1031 41.1738 11.9821 41.045 11.8416 40.9425C11.6593 40.8113 11.4547 40.7173 11.2387 40.6655C11.0336 40.6139 10.8235 40.5871 10.6124 40.5857C10.3102 40.5797 10.0102 40.6408 9.7325 40.7649C9.49075 40.8753 9.27332 41.0361 9.09367 41.2374C8.92528 41.4262 8.79439 41.6476 8.70849 41.8892C8.6256 42.1229 8.58268 42.37 8.58167 42.6191C8.58252 42.8892 8.63577 43.1563 8.73824 43.4045C8.83674 43.6526 8.98149 43.878 9.16413 44.0676C9.35053 44.2625 9.57181 44.4175 9.81548 44.5239C10.0787 44.6359 10.361 44.6913 10.6453 44.6868C10.866 44.6857 11.0856 44.6539 11.2982 44.5923C11.522 44.5296 11.7338 44.4277 11.9245 44.2909C12.0575 44.189 12.1729 44.0645 12.2659 43.9226C12.2922 43.8834 12.3309 43.855 12.3753 43.8425C12.4196 43.83 12.4668 43.8341 12.5086 43.8542L13.0034 44.097C13.0286 44.1092 13.051 44.1268 13.0691 44.1487C13.0872 44.1707 13.1007 44.1963 13.1085 44.2241C13.1164 44.2518 13.1185 44.281 13.1146 44.3097C13.1108 44.3383 13.1012 44.3658 13.0863 44.3902C12.9524 44.5947 12.7811 44.7696 12.5822 44.9051C12.294 45.1045 11.9767 45.2541 11.6427 45.3483C11.3033 45.4477 10.9525 45.4987 10.5999 45.4998C10.1797 45.5041 9.76314 45.4193 9.3755 45.2506C9.01422 45.092 8.68408 44.8655 8.40161 44.5825C8.13346 44.3159 7.91665 43.9984 7.76278 43.6473C7.61431 43.3177 7.53632 42.9586 7.53418 42.5947Z" fill="url(#paint5_linear_78_1215)" stroke="url(#paint6_linear_78_1215)" stroke-width="0.1" stroke-miterlimit="10"/>
<path d="M15.1309 45.244V40.0415C15.1309 39.9844 15.1527 39.9297 15.1914 39.8894C15.2302 39.849 15.2828 39.8264 15.3376 39.8264H17.932C18.2055 39.8244 18.4766 39.8799 18.729 39.9893C18.9601 40.0896 19.1722 40.232 19.3553 40.4097C19.5293 40.5776 19.6712 40.7783 19.7734 41.0012C19.8722 41.2074 19.9257 41.4339 19.9299 41.6643C19.9316 41.914 19.8791 42.1609 19.7764 42.3866C19.6736 42.6123 19.5233 42.811 19.3365 42.9678C19.2089 43.0783 19.0665 43.1689 18.9138 43.2367C18.8852 43.2496 18.8598 43.2692 18.8396 43.294C18.8195 43.3188 18.805 43.348 18.7975 43.3795C18.7899 43.411 18.7894 43.4439 18.796 43.4756C18.8026 43.5074 18.8161 43.5371 18.8355 43.5625L19.9425 45.1283C19.9649 45.1606 19.9784 45.1987 19.9814 45.2384C19.9844 45.2781 19.9768 45.3179 19.9595 45.3535C19.9422 45.389 19.9158 45.4189 19.8833 45.4398C19.8507 45.4607 19.8132 45.4719 19.7749 45.4721H19.1486C19.1163 45.4719 19.0845 45.4638 19.0557 45.4485C19.0269 45.4333 19.0019 45.4112 18.9827 45.3842L17.7113 43.5919C17.6919 43.5651 17.6668 43.5434 17.638 43.5284C17.6092 43.5134 17.5775 43.5056 17.5453 43.5055H16.3616C16.3068 43.5055 16.2542 43.5282 16.2154 43.5685C16.1767 43.6088 16.1549 43.6635 16.1549 43.7206V45.2489C16.1549 45.3061 16.1332 45.361 16.0945 45.4016C16.0558 45.4422 16.0032 45.4652 15.9482 45.4656H15.3376C15.31 45.4654 15.2827 45.4595 15.2573 45.4482C15.2319 45.4369 15.2089 45.4205 15.1897 45.3999C15.1704 45.3792 15.1553 45.3548 15.1452 45.3281C15.1352 45.3013 15.1303 45.2728 15.1309 45.244ZM16.1549 42.4986C16.1549 42.5556 16.1767 42.6103 16.2154 42.6506C16.2542 42.691 16.3068 42.7136 16.3616 42.7136H17.9273C18.1036 42.7169 18.2768 42.6659 18.4253 42.567C18.5706 42.4691 18.6899 42.3346 18.772 42.1759C18.8541 42.0173 18.8964 41.8396 18.895 41.6594C18.8966 41.4705 18.8449 41.2852 18.7462 41.1266C18.6516 40.971 18.5235 40.8405 18.372 40.7454C18.2213 40.6527 18.0491 40.6048 17.8741 40.6069H16.3616C16.3068 40.6069 16.2542 40.6295 16.2154 40.6699C16.1767 40.7102 16.1549 40.7649 16.1549 40.8219V42.4986Z" fill="url(#paint7_linear_78_1215)" stroke="url(#paint8_linear_78_1215)" stroke-width="0.1" stroke-miterlimit="10"/>
<path d="M24.0337 39.8264H24.8652C24.8843 39.8262 24.903 39.8318 24.9192 39.8425C24.9353 39.8532 24.9481 39.8686 24.956 39.8867L27.3641 45.3076C27.3716 45.3235 27.375 45.3412 27.374 45.3589C27.3731 45.3766 27.3679 45.3938 27.3588 45.4088C27.3497 45.4238 27.337 45.4362 27.3221 45.4447C27.3071 45.4532 27.2903 45.4576 27.2733 45.4575H26.4293C26.4093 45.4573 26.3897 45.451 26.3731 45.4394C26.3564 45.4279 26.3433 45.4115 26.3354 45.3923L25.7592 43.9894C25.7512 43.9704 25.7381 43.9543 25.7214 43.943C25.7047 43.9317 25.6852 43.9258 25.6653 43.9259H23.2258C23.2059 43.926 23.1865 43.932 23.1698 43.9433C23.1532 43.9545 23.14 43.9706 23.1319 43.9894L22.5541 45.3923C22.5461 45.4114 22.5329 45.4276 22.5163 45.4392C22.4996 45.4507 22.4802 45.4571 22.4602 45.4575H21.6162C21.5992 45.4575 21.5824 45.453 21.5675 45.4445C21.5526 45.4359 21.5399 45.4237 21.5308 45.4088C21.5216 45.3938 21.5161 45.3768 21.5149 45.3591C21.5137 45.3414 21.5168 45.3237 21.5238 45.3076L23.9414 39.8834C23.95 39.8658 23.9632 39.851 23.9796 39.8409C23.996 39.8309 24.0147 39.8258 24.0337 39.8264ZM25.4022 43.1226L24.5426 41.0289C24.5349 41.0096 24.5218 40.9931 24.5051 40.9815C24.4884 40.9699 24.4688 40.9637 24.4487 40.9637C24.4286 40.9637 24.4089 40.9699 24.3922 40.9815C24.3755 40.9931 24.3625 41.0096 24.3547 41.0289L23.492 43.1226C23.4852 43.1386 23.4823 43.156 23.4837 43.1734C23.485 43.1908 23.4906 43.2076 23.4998 43.2221C23.5089 43.2367 23.5215 43.2487 23.5363 43.2569C23.5511 43.2652 23.5676 43.2694 23.5844 43.2693H25.3067C25.3236 43.2695 25.3403 43.2654 25.3553 43.2573C25.3702 43.2492 25.383 43.2373 25.3925 43.2228C25.402 43.2082 25.4078 43.1915 25.4095 43.174C25.4112 43.1565 25.4087 43.1388 25.4022 43.1226Z" fill="url(#paint9_linear_78_1215)" stroke="url(#paint10_linear_78_1215)" stroke-width="0.1" stroke-miterlimit="10"/>
<path d="M29.2165 45.3613V39.9307C29.2164 39.9177 29.2189 39.9048 29.2238 39.8929C29.2286 39.8809 29.2356 39.8701 29.2445 39.861C29.2534 39.8519 29.264 39.8447 29.2755 39.8399C29.2871 39.8351 29.2995 39.8327 29.312 39.8329H31.9174C32.1914 39.8307 32.463 39.8861 32.7159 39.9958C32.9464 40.0974 33.1583 40.2396 33.3422 40.4162C33.5181 40.5824 33.6602 40.7835 33.7603 41.0077C33.8535 41.2154 33.9026 41.4416 33.9043 41.6708C33.9038 41.984 33.821 42.2911 33.6648 42.5588C33.4998 42.8442 33.2668 43.0805 32.9883 43.2448C32.6765 43.4286 32.3226 43.521 31.9643 43.512H30.336C30.3109 43.512 30.2868 43.5223 30.269 43.5405C30.2511 43.5588 30.2409 43.5837 30.2405 43.6098V45.3727C30.2407 45.3857 30.2384 45.3986 30.2338 45.4107C30.2291 45.4227 30.2222 45.4337 30.2135 45.4429C30.2048 45.4522 30.1943 45.4595 30.1828 45.4645C30.1713 45.4696 30.159 45.4721 30.1465 45.4721H29.312C29.2984 45.4722 29.2851 45.4693 29.2727 45.4636C29.2603 45.458 29.2493 45.4496 29.2402 45.4391C29.2312 45.4286 29.2244 45.4163 29.2203 45.4029C29.2162 45.3895 29.2149 45.3753 29.2165 45.3613ZM30.2405 42.6159C30.2409 42.6419 30.2511 42.6668 30.269 42.6851C30.2868 42.7034 30.3109 42.7136 30.336 42.7136H31.9095C32.0847 42.7167 32.2571 42.6687 32.4075 42.5751C32.5528 42.4829 32.6717 42.3518 32.7519 42.1955C32.8376 42.0281 32.8812 41.8409 32.8787 41.6513C32.8824 41.4592 32.8323 41.2701 32.7347 41.1071C32.6355 40.9464 32.4972 40.816 32.3339 40.7291C32.1699 40.6471 31.9896 40.6068 31.8078 40.6117H30.336C30.3109 40.6117 30.2868 40.622 30.269 40.6403C30.2511 40.6586 30.2409 40.6834 30.2405 40.7095V42.6159Z" fill="url(#paint11_linear_78_1215)" stroke="url(#paint12_linear_78_1215)" stroke-width="0.1" stroke-miterlimit="10"/>
<path d="M40.1551 45.4607C40.1163 45.4606 40.0789 45.4455 40.0502 45.4184L37.0127 42.5914C36.7936 42.4013 36.5845 42.1989 36.3864 41.9853C36.2547 41.8479 36.1443 41.6902 36.0591 41.5177C35.9967 41.3807 35.9641 41.231 35.9636 41.0794C35.9606 40.8345 36.0391 40.5962 36.1859 40.4048C36.3493 40.2013 36.5601 40.0448 36.7982 39.9502C37.3388 39.743 37.9316 39.7361 38.4766 39.9307C38.7047 40.0101 38.9102 40.1473 39.0748 40.3299C39.2291 40.5032 39.3122 40.7324 39.3065 40.9686C39.3077 41.2053 39.2309 41.4354 39.0888 41.6203C38.924 41.8293 38.7278 42.0092 38.508 42.1531C38.2668 42.3172 37.998 42.4801 37.7016 42.6419C37.4863 42.7576 37.2772 42.8854 37.0753 43.0248C36.9079 43.1356 36.7593 43.2743 36.6353 43.4354C36.533 43.5692 36.4778 43.7354 36.4787 43.9063C36.4775 44.081 36.5395 44.2497 36.6525 44.3788C36.7774 44.5266 36.9363 44.6387 37.1144 44.7047C37.3176 44.7816 37.5324 44.8197 37.7486 44.8171C38.0265 44.8187 38.3014 44.7581 38.5549 44.6395C38.8095 44.5199 39.04 44.3513 39.2345 44.1426C39.4388 43.9277 39.5987 43.6715 39.7042 43.3898C39.7964 43.135 39.8492 42.8667 39.8608 42.5947C39.8608 42.5515 39.8773 42.51 39.9066 42.4795C39.936 42.4489 39.9758 42.4318 40.0173 42.4318H40.5293C40.5709 42.4318 40.6107 42.4489 40.6401 42.4795C40.6694 42.51 40.6859 42.5515 40.6859 42.5947C40.6734 42.9727 40.5905 43.3446 40.4417 43.6896C40.2813 44.0552 40.053 44.3841 39.7699 44.6575C39.4881 44.9275 39.1591 45.1388 38.8007 45.2799C38.4317 45.4257 38.04 45.4997 37.6452 45.4982C37.2655 45.5059 36.8885 45.431 36.5382 45.2783C36.2457 45.1546 35.9885 44.9549 35.7914 44.6982C35.6174 44.4716 35.5229 44.1899 35.5236 43.8998C35.519 43.6277 35.5992 43.3613 35.7522 43.1405C35.9172 42.9106 36.1203 42.713 36.3519 42.5572C36.5962 42.3943 36.8451 42.2313 37.0988 42.0912C37.3524 41.9511 37.5873 41.824 37.783 41.7116C37.9507 41.623 38.1039 41.5076 38.2371 41.3694C38.3356 41.2668 38.3917 41.1283 38.3937 40.9832C38.3934 40.9056 38.3747 40.8293 38.3392 40.761C38.3037 40.6928 38.2525 40.6348 38.1901 40.5922C38.0367 40.484 37.8539 40.4297 37.6687 40.4374C37.5266 40.4339 37.3855 40.4628 37.2554 40.5221C37.1472 40.5717 37.0525 40.6484 36.9798 40.7454C36.9136 40.8331 36.8782 40.9418 36.8796 41.0533C36.8812 41.1409 36.9067 41.2262 36.9532 41.2993C37.0302 41.4138 37.1212 41.5174 37.224 41.6073L37.7877 42.1303L41.104 45.1756C41.1278 45.1975 41.1447 45.2264 41.1524 45.2585C41.16 45.2906 41.1581 45.3244 41.1469 45.3553C41.1357 45.3863 41.1157 45.4129 41.0896 45.4318C41.0634 45.4506 41.0324 45.4607 41.0006 45.4607H40.1551Z" fill="url(#paint13_linear_78_1215)" stroke="url(#paint14_linear_78_1215)" stroke-width="0.1" stroke-miterlimit="10"/>
<path d="M45.2219 39.8492H45.8059C45.839 39.8483 45.8716 39.8578 45.8995 39.8764C45.9274 39.895 45.9493 39.9218 45.9625 39.9535L46.5559 41.3971C46.5689 41.4278 46.5901 41.4538 46.6171 41.4721C46.6441 41.4904 46.6756 41.5002 46.7078 41.5002C46.74 41.5002 46.7715 41.4904 46.7984 41.4721C46.8254 41.4538 46.8467 41.4278 46.8596 41.3971L47.4625 39.947C47.4744 39.9145 47.4961 39.8868 47.5243 39.868C47.5524 39.8493 47.5856 39.8404 47.619 39.8427H48.2124C48.2407 39.8417 48.2687 39.8482 48.2939 39.8617C48.319 39.8751 48.3405 39.895 48.3562 39.9195C48.3719 39.944 48.3813 39.9722 48.3835 40.0016C48.3858 40.0309 48.3808 40.0603 48.369 40.0871L47.403 42.2688C47.3929 42.2919 47.3877 42.3168 47.3877 42.3421C47.3877 42.3674 47.3929 42.3924 47.403 42.4155L48.1764 44.0904C48.1898 44.1202 48.2111 44.1453 48.2377 44.163C48.2643 44.1806 48.2952 44.1899 48.3267 44.1899C48.3583 44.1899 48.3892 44.1806 48.4158 44.163C48.4424 44.1453 48.4637 44.1202 48.4771 44.0904L50.2933 39.9307C50.3071 39.8998 50.3293 39.8737 50.3571 39.8558C50.3849 39.8378 50.4172 39.8287 50.4499 39.8297H51.1842C51.2129 39.8284 51.2414 39.8349 51.267 39.8485C51.2925 39.8621 51.3142 39.8823 51.33 39.9073C51.3458 39.9322 51.3551 39.961 51.357 39.9908C51.3589 40.0206 51.3533 40.0504 51.3408 40.0773L48.8732 45.3662C48.8588 45.3964 48.8364 45.4217 48.8087 45.439C48.7809 45.4563 48.749 45.465 48.7166 45.464H48.034C48.0017 45.4654 47.9698 45.457 47.942 45.44C47.9143 45.4229 47.8918 45.3979 47.8774 45.3679L46.8659 43.2497C46.852 43.2213 46.8309 43.1974 46.8047 43.1807C46.7786 43.164 46.7486 43.1552 46.7179 43.1552C46.6873 43.1552 46.6573 43.164 46.6311 43.1807C46.605 43.1974 46.5839 43.2213 46.57 43.2497L45.5491 45.3679C45.5354 45.3967 45.5142 45.421 45.4879 45.438C45.4616 45.455 45.4313 45.464 45.4004 45.464H44.7193C44.6869 45.465 44.655 45.4563 44.6272 45.439C44.5994 45.4217 44.577 45.3964 44.5627 45.3662L42.0951 40.0773C42.0829 40.0511 42.0773 40.022 42.0789 39.9929C42.0804 39.9638 42.089 39.9356 42.1038 39.9108C42.1187 39.8861 42.1393 39.8657 42.1638 39.8515C42.1883 39.8373 42.2158 39.8298 42.2438 39.8297H42.9797C43.0125 39.8283 43.045 39.8372 43.0729 39.8552C43.1008 39.8732 43.1229 39.8995 43.1363 39.9307L44.9573 44.097C44.9706 44.1267 44.9919 44.1519 45.0185 44.1695C45.0451 44.1871 45.076 44.1964 45.1076 44.1964C45.1391 44.1964 45.17 44.1871 45.1966 44.1695C45.2233 44.1519 45.2445 44.1267 45.2579 44.097L46.0314 42.422C46.0418 42.3991 46.0472 42.374 46.0472 42.3487C46.0472 42.3233 46.0418 42.2983 46.0314 42.2753L45.07 40.0936C45.0584 40.0672 45.0534 40.0382 45.0554 40.0093C45.0575 39.9804 45.0665 39.9525 45.0816 39.9281C45.0967 39.9038 45.1175 39.8838 45.142 39.87C45.1665 39.8562 45.194 39.8491 45.2219 39.8492Z" fill="url(#paint15_linear_78_1215)" stroke="url(#paint16_linear_78_1215)" stroke-width="0.1" stroke-miterlimit="10"/>
<path d="M53.1929 45.3206V39.9665C53.1929 39.9294 53.2071 39.8937 53.2323 39.8674C53.2576 39.8412 53.2918 39.8264 53.3276 39.8264H55.9893C56.2633 39.8245 56.5349 39.8799 56.7879 39.9893C57.019 40.0896 57.2311 40.232 57.4142 40.4097C57.5881 40.5773 57.7295 40.7781 57.8307 41.0012C57.9301 41.2071 57.9837 41.4338 57.9872 41.6643C57.988 41.9131 57.9344 42.1588 57.8307 42.3829C57.7279 42.6083 57.5782 42.807 57.3922 42.9646C57.2433 43.0924 57.0751 43.1937 56.8943 43.2644C56.8752 43.272 56.8579 43.2841 56.844 43.2998C56.8301 43.3155 56.8198 43.3344 56.8141 43.3549C56.8083 43.3754 56.8072 43.397 56.8108 43.4181C56.8144 43.4391 56.8226 43.459 56.8348 43.4762L58.0874 45.2424C58.1022 45.2633 58.1111 45.2879 58.1132 45.3137C58.1153 45.3395 58.1105 45.3654 58.0993 45.3885C58.0881 45.4117 58.071 45.4311 58.0498 45.4447C58.0286 45.4583 58.0043 45.4656 57.9794 45.4656H57.1715C57.1504 45.4658 57.1296 45.4608 57.1108 45.4508C57.092 45.4409 57.0757 45.4264 57.0634 45.4086L55.7482 43.5609C55.7353 43.5439 55.7189 43.53 55.7002 43.5204C55.6815 43.5109 55.661 43.5058 55.6402 43.5055H54.3547C54.3192 43.5055 54.2852 43.5201 54.26 43.546C54.2348 43.5719 54.2205 43.6071 54.22 43.644V45.3255C54.22 45.3624 54.2061 45.3978 54.1812 45.424C54.1562 45.4503 54.1224 45.4652 54.087 45.4656H53.3307C53.3124 45.4659 53.2943 45.4623 53.2773 45.455C53.2604 45.4478 53.2451 45.4371 53.2322 45.4236C53.2194 45.41 53.2093 45.3939 53.2025 45.3763C53.1957 45.3586 53.1925 45.3397 53.1929 45.3206ZM54.2169 42.5751C54.2173 42.612 54.2317 42.6472 54.2569 42.6732C54.2821 42.6991 54.3161 42.7136 54.3516 42.7136H55.9846C56.1614 42.7168 56.3351 42.6658 56.4841 42.567C56.6279 42.4707 56.7463 42.3385 56.8286 42.1825C56.9136 42.0225 56.9573 41.8423 56.9554 41.6594C56.9554 41.4696 56.9009 41.284 56.7988 41.1266C56.7033 40.9725 56.5747 40.8437 56.423 40.7503C56.2723 40.6577 56.1001 40.6098 55.9251 40.6118H54.3516C54.3159 40.6118 54.2816 40.6265 54.2563 40.6528C54.2311 40.6791 54.2169 40.7147 54.2169 40.7519V42.5751Z" fill="url(#paint17_linear_78_1215)" stroke="url(#paint18_linear_78_1215)" stroke-width="0.1" stroke-miterlimit="10"/>
<path d="M64.5867 44.7829V45.3516C64.5869 45.3658 64.5844 45.38 64.5793 45.3932C64.5742 45.4065 64.5666 45.4185 64.557 45.4287C64.5474 45.4388 64.5359 45.4469 64.5233 45.4524C64.5106 45.4579 64.4971 45.4607 64.4834 45.4607H60.2778C60.2499 45.4607 60.2232 45.4492 60.2036 45.4288C60.1839 45.4083 60.1729 45.3805 60.1729 45.3516V39.9307C60.1729 39.9017 60.1839 39.874 60.2036 39.8535C60.2232 39.833 60.2499 39.8215 60.2778 39.8215H64.4051C64.4326 39.8219 64.4589 39.8336 64.4782 39.854C64.4976 39.8745 64.5084 39.902 64.5084 39.9307V40.4977C64.5084 40.5264 64.4976 40.5539 64.4782 40.5743C64.4589 40.5947 64.4326 40.6064 64.4051 40.6069H61.3049C61.2771 40.6069 61.2504 40.6184 61.2307 40.6388C61.211 40.6593 61.2 40.6871 61.2 40.716V42.1091C61.2 42.1234 61.2027 42.1375 61.208 42.1507C61.2133 42.1638 61.221 42.1757 61.2308 42.1858C61.2406 42.1958 61.2521 42.2037 61.2649 42.209C61.2776 42.2143 61.2912 42.2169 61.3049 42.2167H63.9667C63.9945 42.2167 64.0212 42.2282 64.0408 42.2486C64.0605 42.2691 64.0716 42.2969 64.0716 42.3258V42.8391C64.0716 42.868 64.0605 42.8958 64.0408 42.9163C64.0212 42.9368 63.9945 42.9483 63.9667 42.9483H61.3049C61.2773 42.9483 61.2509 42.9595 61.2313 42.9797C61.2116 42.9998 61.2004 43.0271 61.2 43.0558V44.5613C61.2 44.5756 61.2027 44.5897 61.208 44.6029C61.2133 44.616 61.221 44.6279 61.2308 44.638C61.2406 44.648 61.2521 44.6558 61.2649 44.6612C61.2776 44.6665 61.2912 44.6691 61.3049 44.6689H64.4834C64.4975 44.6688 64.5115 44.6718 64.5244 44.6776C64.5374 44.6834 64.5491 44.6919 64.5587 44.7026C64.5684 44.7133 64.5759 44.726 64.5807 44.7398C64.5855 44.7536 64.5876 44.7683 64.5867 44.7829Z" fill="url(#paint19_linear_78_1215)" stroke="url(#paint20_linear_78_1215)" stroke-width="0.1" stroke-miterlimit="10"/>
<path d="M66.1011 42.5947C66.1024 42.2466 66.1734 41.9025 66.3093 41.5845C66.4556 41.2444 66.6635 40.9369 66.9215 40.6785C67.2041 40.3966 67.5371 40.1751 67.9017 40.0268C68.3189 39.8589 68.7634 39.7764 69.2107 39.784C69.7333 39.7694 70.2515 39.888 70.72 40.1295C71.0466 40.2999 71.3315 40.5456 71.553 40.848C71.5672 40.8682 71.5771 40.8913 71.5821 40.9157C71.5872 40.9402 71.5872 40.9655 71.5821 40.9899C71.5771 41.0144 71.5672 41.0375 71.553 41.0577C71.5388 41.0778 71.5207 41.0947 71.4998 41.1071L71.0034 41.3971C70.9669 41.4192 70.9235 41.4258 70.8824 41.4154C70.8413 41.4051 70.8056 41.3787 70.7827 41.3417C70.6857 41.1839 70.5595 41.0477 70.4116 40.9409C70.2293 40.8097 70.0248 40.7157 69.8088 40.6639C69.6011 40.6116 69.3883 40.5848 69.1746 40.584C68.8724 40.578 68.5724 40.6391 68.2947 40.7633C68.0529 40.8737 67.8355 41.0345 67.6559 41.2358C67.4875 41.4245 67.3566 41.646 67.2707 41.8875C67.1878 42.1213 67.1449 42.3683 67.1439 42.6175C67.1447 42.8876 67.198 43.1547 67.3004 43.4029C67.3989 43.651 67.5437 43.8764 67.7263 44.066C67.913 44.2613 68.1349 44.4163 68.3792 44.5222C68.6419 44.6344 68.9237 44.6898 69.2075 44.6852C69.4282 44.6841 69.6478 44.6523 69.8604 44.5907C70.0842 44.528 70.296 44.4261 70.4867 44.2892C70.635 44.1819 70.7625 44.0465 70.8625 43.89C70.8851 43.8559 70.9186 43.8313 70.9571 43.8205C70.9955 43.8098 71.0364 43.8136 71.0723 43.8314L71.6157 44.097C71.6373 44.1078 71.6564 44.1233 71.6719 44.1424C71.6874 44.1614 71.6988 44.1837 71.7054 44.2077C71.7121 44.2317 71.7138 44.2568 71.7105 44.2816C71.7071 44.3063 71.6988 44.33 71.6861 44.3511C71.5512 44.5674 71.3741 44.7517 71.1663 44.8921C70.8758 45.0926 70.5559 45.2423 70.219 45.3353C69.8796 45.4347 69.5288 45.4856 69.1762 45.4868C68.7565 45.4912 68.3404 45.4064 67.9534 45.2375C67.5914 45.0794 67.2607 44.8529 66.9779 44.5695C66.7108 44.3019 66.4941 43.9847 66.3391 43.6342C66.1898 43.3092 66.1087 42.9548 66.1011 42.5947Z" fill="url(#paint21_linear_78_1215)" stroke="url(#paint22_linear_78_1215)" stroke-width="0.1" stroke-miterlimit="10"/>
<path d="M73.6978 45.3679V39.9193C73.6976 39.907 73.6997 39.8948 73.7041 39.8835C73.7085 39.8721 73.7151 39.8618 73.7234 39.8531C73.7318 39.8444 73.7417 39.8376 73.7526 39.833C73.7635 39.8284 73.7752 39.8262 73.787 39.8264H74.6325C74.6443 39.8262 74.656 39.8284 74.6669 39.833C74.6778 39.8376 74.6878 39.8444 74.6961 39.8531C74.7044 39.8618 74.711 39.8721 74.7154 39.8835C74.7198 39.8948 74.722 39.907 74.7218 39.9193V42.5263C74.7202 42.5458 74.7246 42.5654 74.7343 42.5822C74.7441 42.599 74.7587 42.6121 74.7761 42.6197C74.7935 42.6273 74.8128 42.629 74.8312 42.6245C74.8495 42.62 74.866 42.6096 74.8783 42.5947L77.7139 39.8427C77.7299 39.8267 77.7513 39.818 77.7734 39.8182H78.6393C78.6577 39.8177 78.6758 39.8231 78.6911 39.8337C78.7064 39.8442 78.7183 39.8595 78.725 39.8773C78.7316 39.8952 78.7329 39.9147 78.7285 39.9333C78.724 39.9519 78.7142 39.9686 78.7003 39.9812L76.3956 42.2623C76.3796 42.2796 76.3707 42.3027 76.3707 42.3267C76.3707 42.3506 76.3796 42.3737 76.3956 42.391L78.882 45.3239C78.8935 45.3373 78.901 45.3539 78.9037 45.3717C78.9063 45.3895 78.9039 45.4077 78.8968 45.4241C78.8896 45.4405 78.8781 45.4544 78.8635 45.4641C78.8489 45.4738 78.8319 45.4788 78.8146 45.4787H77.9018C77.889 45.4786 77.8764 45.4756 77.8647 45.47C77.8531 45.4644 77.8428 45.4562 77.8345 45.4461L75.7411 42.9466C75.7254 42.9284 75.7035 42.9173 75.6801 42.9158C75.6566 42.9142 75.6335 42.9224 75.6158 42.9385L74.7531 43.7238C74.7432 43.7323 74.7352 43.7431 74.7298 43.7552C74.7244 43.7673 74.7216 43.7805 74.7218 43.7939V45.3679C74.7218 45.3925 74.7124 45.4161 74.6956 45.4335C74.6789 45.451 74.6562 45.4607 74.6325 45.4607H73.787C73.7633 45.4607 73.7406 45.451 73.7239 45.4335C73.7072 45.4161 73.6978 45.3925 73.6978 45.3679Z" fill="url(#paint23_linear_78_1215)" stroke="url(#paint24_linear_78_1215)" stroke-width="0.1" stroke-miterlimit="10"/>
<path d="M85.0827 44.866V45.2685C85.0829 45.2936 85.0783 45.3186 85.0692 45.3419C85.0601 45.3652 85.0467 45.3864 85.0296 45.4043C85.0126 45.4222 84.9923 45.4364 84.97 45.4461C84.9477 45.4558 84.9237 45.4607 84.8995 45.4607H80.8458C80.8216 45.4607 80.7977 45.4558 80.7753 45.4461C80.753 45.4364 80.7327 45.4222 80.7157 45.4043C80.6987 45.3864 80.6852 45.3652 80.6761 45.3419C80.667 45.3186 80.6624 45.2936 80.6626 45.2685V40.017C80.6626 39.9665 80.6819 39.918 80.7163 39.8822C80.7506 39.8465 80.7972 39.8264 80.8458 39.8264H84.8119C84.8604 39.8264 84.907 39.8465 84.9414 39.8822C84.9757 39.918 84.995 39.9665 84.995 40.017V40.4195C84.9952 40.4446 84.9907 40.4696 84.9815 40.4929C84.9724 40.5162 84.959 40.5375 84.9419 40.5553C84.9249 40.5732 84.9047 40.5874 84.8823 40.5971C84.86 40.6068 84.836 40.6117 84.8119 40.6117H81.8761C81.8275 40.6117 81.7809 40.6318 81.7465 40.6676C81.7122 40.7033 81.6929 40.7518 81.6929 40.8024V42.0309C81.6929 42.0815 81.7122 42.13 81.7465 42.1657C81.7809 42.2015 81.8275 42.2216 81.8761 42.2216H84.3813C84.4055 42.2216 84.4294 42.2265 84.4517 42.2362C84.4741 42.2459 84.4943 42.2601 84.5114 42.278C84.5284 42.2958 84.5419 42.317 84.551 42.3404C84.5601 42.3637 84.5647 42.3886 84.5645 42.4138V42.7609C84.5647 42.786 84.5601 42.811 84.551 42.8343C84.5419 42.8576 84.5284 42.8789 84.5114 42.8967C84.4943 42.9146 84.4741 42.9288 84.4517 42.9385C84.4294 42.9482 84.4055 42.9531 84.3813 42.9531H81.8761C81.8275 42.9531 81.7809 42.9732 81.7465 43.009C81.7122 43.0447 81.6929 43.0932 81.6929 43.1438V44.4831C81.6929 44.5337 81.7122 44.5822 81.7465 44.6179C81.7809 44.6537 81.8275 44.6737 81.8761 44.6737H84.8995C84.9237 44.6737 84.9477 44.6787 84.97 44.6884C84.9923 44.6981 85.0126 44.7123 85.0296 44.7302C85.0467 44.748 85.0601 44.7692 85.0692 44.7926C85.0783 44.8159 85.0829 44.8408 85.0827 44.866Z" fill="url(#paint25_linear_78_1215)" stroke="url(#paint26_linear_78_1215)" stroke-width="0.1" stroke-miterlimit="10"/>
<path d="M87.1226 45.3076V39.9763C87.1226 39.9565 87.1263 39.9368 87.1337 39.9185C87.141 39.9003 87.1518 39.8837 87.1653 39.8697C87.1788 39.8558 87.1949 39.8448 87.2126 39.8373C87.2302 39.8299 87.2491 39.8262 87.2682 39.8264H89.93C90.2034 39.8244 90.4745 39.8799 90.7269 39.9893C90.9581 40.0894 91.1703 40.2318 91.3532 40.4097C91.5263 40.5781 91.6675 40.7787 91.7697 41.0012C91.8692 41.2071 91.9228 41.4338 91.9263 41.6643C91.9271 41.9131 91.8735 42.1588 91.7697 42.3829C91.6664 42.6084 91.5161 42.8071 91.3297 42.9645C91.1849 43.0895 91.0215 43.1891 90.8459 43.2595C90.8251 43.2677 90.8064 43.2809 90.7913 43.2979C90.7762 43.315 90.7651 43.3354 90.7588 43.3577C90.7526 43.38 90.7515 43.4034 90.7554 43.4263C90.7594 43.4491 90.7684 43.4706 90.7817 43.4892L92.0077 45.2245C92.0236 45.2471 92.0332 45.2738 92.0354 45.3017C92.0376 45.3296 92.0323 45.3576 92.0202 45.3826C92.008 45.4076 91.9894 45.4286 91.9665 45.4432C91.9436 45.4579 91.9172 45.4656 91.8903 45.4656H91.1074C91.0845 45.4656 91.062 45.46 91.0416 45.4493C91.0212 45.4385 91.0035 45.4229 90.99 45.4037L89.681 43.5658C89.6675 43.5471 89.65 43.532 89.6299 43.5215C89.6098 43.511 89.5876 43.5056 89.5651 43.5055H88.2969C88.2585 43.5055 88.2217 43.5212 88.1945 43.5493C88.1672 43.5774 88.1517 43.6155 88.1512 43.6554V45.3076C88.1512 45.3478 88.1359 45.3863 88.1086 45.4147C88.0813 45.4431 88.0443 45.4591 88.0056 45.4591H87.265C87.227 45.4583 87.1907 45.4419 87.1641 45.4136C87.1375 45.3853 87.1225 45.3472 87.1226 45.3076ZM88.1466 42.5621C88.147 42.602 88.1625 42.6401 88.1898 42.6682C88.217 42.6963 88.2538 42.712 88.2922 42.712H89.9143C90.0905 42.7155 90.2638 42.6644 90.4122 42.5654C90.5576 42.4674 90.6768 42.3329 90.7589 42.1743C90.8411 42.0156 90.8834 41.838 90.8819 41.6578C90.882 41.4679 90.8275 41.2824 90.7253 41.125C90.6294 40.9713 90.5009 40.8425 90.3496 40.7486C90.1983 40.6561 90.0256 40.6082 89.8501 40.6101H88.2843C88.246 40.6101 88.2092 40.6259 88.1819 40.6539C88.1547 40.682 88.1391 40.7201 88.1387 40.76L88.1466 42.5621Z" fill="url(#paint27_linear_78_1215)" stroke="url(#paint28_linear_78_1215)" stroke-width="0.1" stroke-miterlimit="10"/>
<path d="M98.0144 40.9816C98.002 41.0021 97.9858 41.0198 97.9667 41.0337C97.9476 41.0476 97.9261 41.0574 97.9034 41.0625C97.8807 41.0677 97.8572 41.0681 97.8343 41.0637C97.8114 41.0593 97.7896 41.0502 97.7701 41.037C97.7357 41.0142 97.695 40.9898 97.6511 40.9653C97.5205 40.8929 97.3843 40.8319 97.244 40.7828C97.0783 40.723 96.9088 40.6751 96.7367 40.6394C96.5502 40.5996 96.3603 40.5794 96.1699 40.5792C95.7456 40.5792 95.4324 40.6476 95.2305 40.7845C95.1339 40.8411 95.0538 40.9238 94.9987 41.0239C94.9436 41.124 94.9154 41.2378 94.9173 41.3531C94.9137 41.4331 94.9272 41.513 94.957 41.5868C94.9868 41.6607 95.0321 41.7267 95.0895 41.78C95.2451 41.9061 95.426 41.994 95.6188 42.0374C95.8578 42.1026 96.1527 42.1721 96.5034 42.246C96.8907 42.3202 97.271 42.4292 97.6402 42.5719C97.9205 42.672 98.1728 42.8427 98.3745 43.0688C98.5538 43.2982 98.6458 43.5882 98.6328 43.8835C98.6394 44.1391 98.5752 44.3914 98.4481 44.6102C98.3201 44.8192 98.1442 44.9916 97.9361 45.112C97.7006 45.2475 97.4466 45.3447 97.183 45.4004C96.8817 45.4656 96.5747 45.4973 96.267 45.4949C95.9466 45.4946 95.627 45.4641 95.3119 45.4037C95.0026 45.3456 94.6991 45.2578 94.4053 45.1414C94.1822 45.0543 93.9664 44.948 93.7602 44.8237C93.7395 44.8111 93.7215 44.7944 93.7072 44.7743C93.693 44.7543 93.6828 44.7314 93.6774 44.7072C93.672 44.6829 93.6714 44.6577 93.6757 44.6332C93.68 44.6087 93.689 44.5853 93.7023 44.5646L93.9716 44.1295C93.984 44.1091 94.0002 44.0914 94.0193 44.0775C94.0383 44.0636 94.0598 44.0538 94.0826 44.0486C94.1053 44.0434 94.1288 44.043 94.1517 44.0474C94.1746 44.0518 94.1964 44.0609 94.2159 44.0741C94.2707 44.1116 94.3349 44.1491 94.4084 44.1898C94.5775 44.279 94.7516 44.3574 94.9298 44.4245C95.14 44.5015 95.355 44.5636 95.5734 44.6102C95.8077 44.6605 96.0465 44.6856 96.2858 44.6852C96.605 44.7031 96.9237 44.6399 97.2143 44.501C97.3121 44.4529 97.3946 44.3764 97.4518 44.2807C97.509 44.1851 97.5385 44.0743 97.5368 43.9617C97.5384 43.875 97.5199 43.7891 97.4829 43.7114C97.4458 43.6336 97.3913 43.5664 97.3239 43.5153C97.1395 43.3822 96.9338 43.2845 96.7164 43.2269C96.4533 43.1487 96.137 43.0639 95.7769 42.9906C95.4154 42.9133 95.0608 42.8043 94.7169 42.6647C94.4703 42.5715 94.2513 42.4131 94.0812 42.2053C93.935 41.9975 93.8615 41.7439 93.873 41.4867C93.8638 41.1467 93.9716 40.8146 94.1767 40.5498C94.3993 40.2798 94.69 40.08 95.016 39.973C95.3983 39.8397 95.7995 39.7742 96.2028 39.7791C96.4814 39.778 96.7594 39.8058 97.0326 39.8622C97.2797 39.9175 97.5218 39.9949 97.756 40.0936C97.9072 40.1573 98.0542 40.2314 98.196 40.3152C98.2174 40.3276 98.2361 40.3445 98.251 40.3647C98.2659 40.3849 98.2767 40.4081 98.2827 40.4328C98.2887 40.4575 98.2898 40.4832 98.286 40.5084C98.2821 40.5336 98.2733 40.5576 98.2602 40.5792L98.0144 40.9816Z" fill="url(#paint29_linear_78_1215)" stroke="url(#paint30_linear_78_1215)" stroke-width="0.1" stroke-miterlimit="10"/>
<defs>
<linearGradient id="paint0_linear_78_1215" x1="82.2879" y1="33.4947" x2="82.2879" y2="0.5" gradientUnits="userSpaceOnUse">
<stop stop-color="#1A1A1A"/>
<stop offset="0.213542"/>
<stop offset="0.411458" stop-color="#4D4B4D"/>
<stop offset="0.78125" stop-color="#CCCCCC"/>
<stop offset="1" stop-color="#B3B3B3"/>
</linearGradient>
<linearGradient id="paint1_linear_78_1215" x1="44.3729" y1="35.5151" x2="44.3729" y2="0.5" gradientUnits="userSpaceOnUse">
<stop stop-color="#7D1B12"/>
<stop offset="0.26" stop-color="#EE8179"/>
<stop offset="0.487995" stop-color="#C13E38"/>
<stop offset="0.739557" stop-color="#EE8179"/>
<stop offset="1" stop-color="#C53438"/>
</linearGradient>
<linearGradient id="paint2_linear_78_1215" x1="20.4969" y1="35.5151" x2="20.4969" y2="0.5" gradientUnits="userSpaceOnUse">
<stop stop-color="#1A1A1A"/>
<stop offset="0.213542"/>
<stop offset="0.411458" stop-color="#4D4B4D"/>
<stop offset="0.78125" stop-color="#CCCCCC"/>
<stop offset="1" stop-color="#B3B3B3"/>
</linearGradient>
<linearGradient id="paint3_linear_78_1215" x1="3.47412" y1="45.49" x2="3.47412" y2="39.7823" gradientUnits="userSpaceOnUse">
<stop stop-color="#4D4B4D"/>
<stop offset="0.25" stop-color="#A7A9AB"/>
<stop offset="0.505208" stop-color="#666666"/>
<stop offset="0.76" stop-color="#808080"/>
<stop offset="1" stop-color="#CCCCCC"/>
</linearGradient>
<linearGradient id="paint4_linear_78_1215" x1="0.992305" y1="42.6436" x2="5.95574" y2="42.6436" gradientUnits="userSpaceOnUse">
<stop stop-color="#DDDAD6"/>
<stop offset="0.06" stop-color="#CECBC9"/>
<stop offset="0.18" stop-color="#A7A4A7"/>
<stop offset="0.26" stop-color="#8A878D"/>
<stop offset="0.52" stop-color="#F3F4F4"/>
<stop offset="0.58" stop-color="#E5E5E6"/>
<stop offset="0.7" stop-color="#BFBEC0"/>
<stop offset="0.87" stop-color="#838084"/>
<stop offset="0.88" stop-color="#7F7C80"/>
<stop offset="1" stop-color="#A7A9AB"/>
</linearGradient>
<linearGradient id="paint5_linear_78_1215" x1="10.3248" y1="45.4965" x2="10.3248" y2="39.7797" gradientUnits="userSpaceOnUse">
<stop stop-color="#4D4B4D"/>
<stop offset="0.25" stop-color="#A7A9AB"/>
<stop offset="0.505208" stop-color="#666666"/>
<stop offset="0.76" stop-color="#808080"/>
<stop offset="1" stop-color="#CCCCCC"/>
</linearGradient>
<linearGradient id="paint6_linear_78_1215" x1="7.52635" y1="42.6436" x2="13.1302" y2="42.6436" gradientUnits="userSpaceOnUse">
<stop stop-color="#DDDAD6"/>
<stop offset="0.06" stop-color="#CECBC9"/>
<stop offset="0.18" stop-color="#A7A4A7"/>
<stop offset="0.26" stop-color="#8A878D"/>
<stop offset="0.52" stop-color="#F3F4F4"/>
<stop offset="0.58" stop-color="#E5E5E6"/>
<stop offset="0.7" stop-color="#BFBEC0"/>
<stop offset="0.87" stop-color="#838084"/>
<stop offset="0.88" stop-color="#7F7C80"/>
<stop offset="1" stop-color="#A7A9AB"/>
</linearGradient>
<linearGradient id="paint7_linear_78_1215" x1="17.556" y1="45.4687" x2="17.556" y2="39.8232" gradientUnits="userSpaceOnUse">
<stop stop-color="#4D4B4D"/>
<stop offset="0.25" stop-color="#A7A9AB"/>
<stop offset="0.505208" stop-color="#666666"/>
<stop offset="0.76" stop-color="#808080"/>
<stop offset="1" stop-color="#CCCCCC"/>
</linearGradient>
<linearGradient id="paint8_linear_78_1215" x1="15.1231" y1="42.6436" x2="19.9863" y2="42.6436" gradientUnits="userSpaceOnUse">
<stop stop-color="#DDDAD6"/>
<stop offset="0.06" stop-color="#CECBC9"/>
<stop offset="0.18" stop-color="#A7A4A7"/>
<stop offset="0.26" stop-color="#8A878D"/>
<stop offset="0.52" stop-color="#F3F4F4"/>
<stop offset="0.58" stop-color="#E5E5E6"/>
<stop offset="0.7" stop-color="#BFBEC0"/>
<stop offset="0.87" stop-color="#838084"/>
<stop offset="0.88" stop-color="#7F7C80"/>
<stop offset="1" stop-color="#A7A9AB"/>
</linearGradient>
<linearGradient id="paint9_linear_78_1215" x1="24.4439" y1="45.4541" x2="24.4439" y2="39.8233" gradientUnits="userSpaceOnUse">
<stop stop-color="#4D4B4D"/>
<stop offset="0.25" stop-color="#A7A9AB"/>
<stop offset="0.505208" stop-color="#666666"/>
<stop offset="0.76" stop-color="#808080"/>
<stop offset="1" stop-color="#CCCCCC"/>
</linearGradient>
<linearGradient id="paint10_linear_78_1215" x1="21.5066" y1="42.6436" x2="27.3813" y2="42.6436" gradientUnits="userSpaceOnUse">
<stop stop-color="#DDDAD6"/>
<stop offset="0.06" stop-color="#CECBC9"/>
<stop offset="0.18" stop-color="#A7A4A7"/>
<stop offset="0.26" stop-color="#8A878D"/>
<stop offset="0.52" stop-color="#F3F4F4"/>
<stop offset="0.58" stop-color="#E5E5E6"/>
<stop offset="0.7" stop-color="#BFBEC0"/>
<stop offset="0.87" stop-color="#838084"/>
<stop offset="0.88" stop-color="#7F7C80"/>
<stop offset="1" stop-color="#A7A9AB"/>
</linearGradient>
<linearGradient id="paint11_linear_78_1215" x1="31.5597" y1="45.4687" x2="31.5597" y2="39.8297" gradientUnits="userSpaceOnUse">
<stop stop-color="#4D4B4D"/>
<stop offset="0.25" stop-color="#A7A9AB"/>
<stop offset="0.505208" stop-color="#666666"/>
<stop offset="0.76" stop-color="#808080"/>
<stop offset="1" stop-color="#CCCCCC"/>
</linearGradient>
<linearGradient id="paint12_linear_78_1215" x1="29.2086" y1="42.6436" x2="33.92" y2="42.6436" gradientUnits="userSpaceOnUse">
<stop stop-color="#DDDAD6"/>
<stop offset="0.06" stop-color="#CECBC9"/>
<stop offset="0.18" stop-color="#A7A4A7"/>
<stop offset="0.26" stop-color="#8A878D"/>
<stop offset="0.52" stop-color="#F3F4F4"/>
<stop offset="0.58" stop-color="#E5E5E6"/>
<stop offset="0.7" stop-color="#BFBEC0"/>
<stop offset="0.87" stop-color="#838084"/>
<stop offset="0.88" stop-color="#7F7C80"/>
<stop offset="1" stop-color="#A7A9AB"/>
</linearGradient>
<linearGradient id="paint13_linear_78_1215" x1="38.3397" y1="45.4953" x2="38.3397" y2="39.7865" gradientUnits="userSpaceOnUse">
<stop stop-color="#4D4B4D"/>
<stop offset="0.25" stop-color="#A7A9AB"/>
<stop offset="0.505208" stop-color="#666666"/>
<stop offset="0.76" stop-color="#808080"/>
<stop offset="1" stop-color="#CCCCCC"/>
</linearGradient>
<linearGradient id="paint14_linear_78_1215" x1="35.5095" y1="42.6436" x2="41.1603" y2="42.6436" gradientUnits="userSpaceOnUse">
<stop stop-color="#DDDAD6"/>
<stop offset="0.06" stop-color="#CECBC9"/>
<stop offset="0.18" stop-color="#A7A4A7"/>
<stop offset="0.26" stop-color="#8A878D"/>
<stop offset="0.52" stop-color="#F3F4F4"/>
<stop offset="0.58" stop-color="#E5E5E6"/>
<stop offset="0.7" stop-color="#BFBEC0"/>
<stop offset="0.87" stop-color="#838084"/>
<stop offset="0.88" stop-color="#7F7C80"/>
<stop offset="1" stop-color="#A7A9AB"/>
</linearGradient>
<linearGradient id="paint15_linear_78_1215" x1="46.7172" y1="45.4607" x2="46.7172" y2="39.8264" gradientUnits="userSpaceOnUse">
<stop stop-color="#4D4B4D"/>
<stop offset="0.25" stop-color="#A7A9AB"/>
<stop offset="0.505208" stop-color="#666666"/>
<stop offset="0.76" stop-color="#808080"/>
<stop offset="1" stop-color="#CCCCCC"/>
</linearGradient>
<linearGradient id="paint16_linear_78_1215" x1="42.081" y1="42.6436" x2="51.3533" y2="42.6436" gradientUnits="userSpaceOnUse">
<stop stop-color="#DDDAD6"/>
<stop offset="0.06" stop-color="#CECBC9"/>
<stop offset="0.18" stop-color="#A7A4A7"/>
<stop offset="0.26" stop-color="#8A878D"/>
<stop offset="0.52" stop-color="#F3F4F4"/>
<stop offset="0.58" stop-color="#E5E5E6"/>
<stop offset="0.7" stop-color="#BFBEC0"/>
<stop offset="0.87" stop-color="#838084"/>
<stop offset="0.88" stop-color="#7F7C80"/>
<stop offset="1" stop-color="#A7A9AB"/>
</linearGradient>
<linearGradient id="paint17_linear_78_1215" x1="55.6528" y1="45.4622" x2="55.6528" y2="39.8233" gradientUnits="userSpaceOnUse">
<stop stop-color="#4D4B4D"/>
<stop offset="0.25" stop-color="#A7A9AB"/>
<stop offset="0.505208" stop-color="#666666"/>
<stop offset="0.76" stop-color="#808080"/>
<stop offset="1" stop-color="#CCCCCC"/>
</linearGradient>
<linearGradient id="paint18_linear_78_1215" x1="53.1851" y1="42.6436" x2="58.1188" y2="42.6436" gradientUnits="userSpaceOnUse">
<stop stop-color="#DDDAD6"/>
<stop offset="0.06" stop-color="#CECBC9"/>
<stop offset="0.18" stop-color="#A7A4A7"/>
<stop offset="0.26" stop-color="#8A878D"/>
<stop offset="0.52" stop-color="#F3F4F4"/>
<stop offset="0.58" stop-color="#E5E5E6"/>
<stop offset="0.7" stop-color="#BFBEC0"/>
<stop offset="0.87" stop-color="#838084"/>
<stop offset="0.88" stop-color="#7F7C80"/>
<stop offset="1" stop-color="#A7A9AB"/>
</linearGradient>
<linearGradient id="paint19_linear_78_1215" x1="62.3795" y1="45.4573" x2="62.3795" y2="39.8184" gradientUnits="userSpaceOnUse">
<stop stop-color="#4D4B4D"/>
<stop offset="0.25" stop-color="#A7A9AB"/>
<stop offset="0.505208" stop-color="#666666"/>
<stop offset="0.76" stop-color="#808080"/>
<stop offset="1" stop-color="#CCCCCC"/>
</linearGradient>
<linearGradient id="paint20_linear_78_1215" x1="60.165" y1="42.6436" x2="64.5945" y2="42.6436" gradientUnits="userSpaceOnUse">
<stop stop-color="#DDDAD6"/>
<stop offset="0.06" stop-color="#CECBC9"/>
<stop offset="0.18" stop-color="#A7A4A7"/>
<stop offset="0.26" stop-color="#8A878D"/>
<stop offset="0.52" stop-color="#F3F4F4"/>
<stop offset="0.58" stop-color="#E5E5E6"/>
<stop offset="0.7" stop-color="#BFBEC0"/>
<stop offset="0.87" stop-color="#838084"/>
<stop offset="0.88" stop-color="#7F7C80"/>
<stop offset="1" stop-color="#A7A9AB"/>
</linearGradient>
<linearGradient id="paint21_linear_78_1215" x1="68.9061" y1="45.4835" x2="68.9061" y2="39.7797" gradientUnits="userSpaceOnUse">
<stop stop-color="#4D4B4D"/>
<stop offset="0.25" stop-color="#A7A9AB"/>
<stop offset="0.505208" stop-color="#666666"/>
<stop offset="0.76" stop-color="#808080"/>
<stop offset="1" stop-color="#CCCCCC"/>
</linearGradient>
<linearGradient id="paint22_linear_78_1215" x1="66.0932" y1="42.6436" x2="71.7096" y2="42.6436" gradientUnits="userSpaceOnUse">
<stop stop-color="#DDDAD6"/>
<stop offset="0.06" stop-color="#CECBC9"/>
<stop offset="0.18" stop-color="#A7A4A7"/>
<stop offset="0.26" stop-color="#8A878D"/>
<stop offset="0.52" stop-color="#F3F4F4"/>
<stop offset="0.58" stop-color="#E5E5E6"/>
<stop offset="0.7" stop-color="#BFBEC0"/>
<stop offset="0.87" stop-color="#838084"/>
<stop offset="0.88" stop-color="#7F7C80"/>
<stop offset="1" stop-color="#A7A9AB"/>
</linearGradient>
<linearGradient id="paint23_linear_78_1215" x1="76.3008" y1="45.4752" x2="76.3008" y2="39.8151" gradientUnits="userSpaceOnUse">
<stop stop-color="#4D4B4D"/>
<stop offset="0.25" stop-color="#A7A9AB"/>
<stop offset="0.505208" stop-color="#666666"/>
<stop offset="0.76" stop-color="#808080"/>
<stop offset="1" stop-color="#CCCCCC"/>
</linearGradient>
<linearGradient id="paint24_linear_78_1215" x1="73.6899" y1="42.6387" x2="78.9086" y2="42.6387" gradientUnits="userSpaceOnUse">
<stop stop-color="#DDDAD6"/>
<stop offset="0.06" stop-color="#CECBC9"/>
<stop offset="0.18" stop-color="#A7A4A7"/>
<stop offset="0.26" stop-color="#8A878D"/>
<stop offset="0.52" stop-color="#F3F4F4"/>
<stop offset="0.58" stop-color="#E5E5E6"/>
<stop offset="0.7" stop-color="#BFBEC0"/>
<stop offset="0.87" stop-color="#838084"/>
<stop offset="0.88" stop-color="#7F7C80"/>
<stop offset="1" stop-color="#A7A9AB"/>
</linearGradient>
<linearGradient id="paint25_linear_78_1215" x1="82.8723" y1="45.4573" x2="82.8723" y2="39.8233" gradientUnits="userSpaceOnUse">
<stop stop-color="#4D4B4D"/>
<stop offset="0.25" stop-color="#A7A9AB"/>
<stop offset="0.505208" stop-color="#666666"/>
<stop offset="0.76" stop-color="#808080"/>
<stop offset="1" stop-color="#CCCCCC"/>
</linearGradient>
<linearGradient id="paint26_linear_78_1215" x1="80.661" y1="42.6436" x2="85.0906" y2="42.6436" gradientUnits="userSpaceOnUse">
<stop stop-color="#DDDAD6"/>
<stop offset="0.06" stop-color="#CECBC9"/>
<stop offset="0.18" stop-color="#A7A4A7"/>
<stop offset="0.26" stop-color="#8A878D"/>
<stop offset="0.52" stop-color="#F3F4F4"/>
<stop offset="0.58" stop-color="#E5E5E6"/>
<stop offset="0.7" stop-color="#BFBEC0"/>
<stop offset="0.87" stop-color="#838084"/>
<stop offset="0.88" stop-color="#7F7C80"/>
<stop offset="1" stop-color="#A7A9AB"/>
</linearGradient>
<linearGradient id="paint27_linear_78_1215" x1="89.5788" y1="45.4622" x2="89.5788" y2="39.8232" gradientUnits="userSpaceOnUse">
<stop stop-color="#4D4B4D"/>
<stop offset="0.25" stop-color="#A7A9AB"/>
<stop offset="0.505208" stop-color="#666666"/>
<stop offset="0.76" stop-color="#808080"/>
<stop offset="1" stop-color="#CCCCCC"/>
</linearGradient>
<linearGradient id="paint28_linear_78_1215" x1="87.1147" y1="42.6436" x2="92.0375" y2="42.6436" gradientUnits="userSpaceOnUse">
<stop stop-color="#DDDAD6"/>
<stop offset="0.06" stop-color="#CECBC9"/>
<stop offset="0.18" stop-color="#A7A4A7"/>
<stop offset="0.26" stop-color="#8A878D"/>
<stop offset="0.52" stop-color="#F3F4F4"/>
<stop offset="0.58" stop-color="#E5E5E6"/>
<stop offset="0.7" stop-color="#BFBEC0"/>
<stop offset="0.87" stop-color="#838084"/>
<stop offset="0.88" stop-color="#7F7C80"/>
<stop offset="1" stop-color="#A7A9AB"/>
</linearGradient>
<linearGradient id="paint29_linear_78_1215" x1="96.153" y1="45.4916" x2="96.153" y2="39.7757" gradientUnits="userSpaceOnUse">
<stop stop-color="#4D4B4D"/>
<stop offset="0.25" stop-color="#A7A9AB"/>
<stop offset="0.505208" stop-color="#666666"/>
<stop offset="0.76" stop-color="#808080"/>
<stop offset="1" stop-color="#CCCCCC"/>
</linearGradient>
<linearGradient id="paint30_linear_78_1215" x1="93.6663" y1="42.6436" x2="98.6422" y2="42.6436" gradientUnits="userSpaceOnUse">
<stop stop-color="#DDDAD6"/>
<stop offset="0.06" stop-color="#CECBC9"/>
<stop offset="0.18" stop-color="#A7A4A7"/>
<stop offset="0.26" stop-color="#8A878D"/>
<stop offset="0.52" stop-color="#F3F4F4"/>
<stop offset="0.58" stop-color="#E5E5E6"/>
<stop offset="0.7" stop-color="#BFBEC0"/>
<stop offset="0.87" stop-color="#838084"/>
<stop offset="0.88" stop-color="#7F7C80"/>
<stop offset="1" stop-color="#A7A9AB"/>
</linearGradient>
</defs>
</svg>
